<svg width="126" height="40" viewBox="0 0 126 40" fill="none" xmlns="http://www.w3.org/2000/svg">
<path d="M64.4564 18.098C64.197 17.1453 63.7721 16.1858 63.0906 15.5026C62.4087 14.8194 61.4519 14.3935 60.5015 14.1335C59.5285 13.8671 58.4389 13.7412 57.3711 13.7412C57.3711 13.7412 57.3711 13.7412 57.3706 13.7412C56.383 13.7412 55.3751 13.8671 54.4746 14.1335C53.6248 14.3849 52.7697 14.7917 52.1435 15.4358V8.35986H49.8301V28.4235H52.1435V27.0376C52.7289 27.639 53.5346 28.0467 54.3757 28.3085C55.2681 28.5862 56.2969 28.7312 57.3706 28.7312C58.5309 28.7312 59.6432 28.5862 60.6076 28.3085C61.5508 28.0371 62.4531 27.609 63.0906 26.9703C63.7726 26.2867 64.197 25.3271 64.4564 24.3744C64.7221 23.3985 64.8477 22.3062 64.8477 21.2362C64.8477 20.1662 64.7221 19.0735 64.4564 18.098ZM62.1602 23.7644C61.9684 24.469 61.695 25.0253 61.3903 25.3308C61.1005 25.6212 60.5727 25.8876 59.9048 26.0799C59.1494 26.2976 58.2512 26.4121 57.3067 26.4121C56.3622 26.4121 55.4639 26.2971 54.7085 26.0794C54.0406 25.8871 53.5128 25.6208 53.2226 25.3303L53.2186 25.3262C52.9157 25.0199 52.6436 24.4653 52.4527 23.764C52.25 23.0194 52.143 22.1453 52.143 21.2362C52.143 20.3271 52.25 19.453 52.4527 18.7085C52.6445 18.004 52.9179 17.4476 53.2226 17.1421C53.5273 16.8367 54.0819 16.5626 54.7852 16.3703C55.5274 16.1671 56.3994 16.0599 57.3067 16.0599C58.2135 16.0599 59.0855 16.1671 59.8282 16.3703C60.531 16.5626 61.086 16.8367 61.3907 17.1421C61.6954 17.4476 61.9688 18.0035 62.1606 18.7085C62.3633 19.4526 62.4703 20.3267 62.4703 21.2362C62.4703 22.1458 62.3633 23.0199 62.1606 23.764L62.1602 23.7644Z" fill="#001137"/>
<path d="M79.2188 23.4848C79.1971 23.5794 79.1739 23.673 79.1494 23.7644C78.9576 24.4689 78.6842 25.0253 78.3795 25.3308C78.0898 25.6217 77.562 25.8876 76.8941 26.0798C76.1387 26.2971 75.2404 26.4121 74.2959 26.4121C73.3514 26.4121 72.4532 26.2971 71.6978 26.0794C71.0299 25.8871 70.5021 25.6208 70.2119 25.3303L70.2074 25.3258C69.9045 25.0194 69.6329 24.4653 69.442 23.7639C69.3073 23.2698 69.2153 22.7185 69.1686 22.138H81.7422C81.7621 21.8376 81.7725 21.5362 81.7725 21.2362C81.7725 20.1658 81.6469 19.0735 81.3812 18.098C81.1219 17.1453 80.697 16.1858 80.0155 15.5026C79.3335 14.8194 78.3768 14.3935 77.4264 14.1335C76.4534 13.8671 75.3638 13.7412 74.2959 13.7412C73.2281 13.7412 72.1385 13.8671 71.1655 14.1335C70.2151 14.3935 69.2579 14.8194 68.5764 15.5026C67.8944 16.1862 67.47 17.1453 67.2106 18.098C66.9449 19.0739 66.8193 20.1658 66.8193 21.2362C66.8193 22.3067 66.9449 23.3989 67.2106 24.3744C67.47 25.3271 67.8949 26.2867 68.5764 26.9698C69.2134 27.6085 70.1158 28.0362 71.0589 28.308C72.0229 28.5858 73.1352 28.7308 74.2959 28.7308C75.4567 28.7308 76.5685 28.5858 77.533 28.308C78.4761 28.0367 79.3784 27.6085 80.0159 26.9698C80.6979 26.2862 81.1223 25.3267 81.3817 24.3739C81.4066 24.2821 81.4302 24.1889 81.4524 24.0948L79.2188 23.4839V23.4848ZM69.4424 18.7085C69.6342 18.0039 69.9076 17.4476 70.2123 17.1421C70.5171 16.8367 71.0716 16.5626 71.7744 16.3703C72.5167 16.1671 73.3886 16.0598 74.2959 16.0598C75.2028 16.0598 76.0747 16.1671 76.8175 16.3703C77.5203 16.5626 78.0753 16.8367 78.38 17.1421C78.6847 17.4476 78.9581 18.0035 79.1499 18.7085C79.2542 19.0912 79.3331 19.5089 79.3848 19.9476H69.2075C69.2597 19.5089 69.3386 19.0917 69.4424 18.7085Z" fill="#001137"/>
<path d="M101.598 16.0603C102.505 16.0603 103.376 16.1675 104.119 16.3707C104.822 16.563 105.377 16.8371 105.682 17.1425C105.986 17.448 106.26 18.0039 106.452 18.7089C106.654 19.453 106.761 20.3271 106.761 21.2366C106.761 22.1462 106.654 23.0203 106.452 23.7644C106.26 24.4689 105.986 25.0253 105.682 25.3307C105.392 25.6212 104.864 25.8875 104.196 26.0798C103.441 26.2975 102.543 26.4121 101.598 26.4121C100.654 26.4121 99.7554 26.2971 99 26.0794C98.3321 25.8871 97.8043 25.6207 97.5141 25.3303L97.5105 25.3266C97.2071 25.0203 96.9355 24.4657 96.7442 23.7639C96.5415 23.0194 96.4345 22.1453 96.4345 21.2362C96.4345 20.3271 96.5415 19.453 96.7442 18.7084C96.936 18.0039 97.2094 17.4475 97.5141 17.1421C97.8188 16.8366 98.3734 16.5625 99.0762 16.3703C99.8184 16.1671 100.69 16.0598 101.598 16.0598M101.598 13.7412C100.53 13.7412 99.4403 13.8671 98.4672 14.1334C97.5168 14.3934 96.5596 14.8194 95.8781 15.5025C95.1962 16.1862 94.7718 17.1453 94.5124 18.098C94.2467 19.0739 94.1211 20.1657 94.1211 21.2362C94.1211 22.3066 94.2467 23.3989 94.5124 24.3744C94.7718 25.3271 95.1966 26.2866 95.8781 26.9698C96.5152 27.6084 97.4175 28.0362 98.3607 28.308C99.3247 28.5857 100.437 28.7307 101.598 28.7307C102.758 28.7307 103.87 28.5857 104.835 28.308C105.778 28.0366 106.68 27.6084 107.318 26.9698C108 26.2862 108.424 25.3266 108.683 24.3739C108.949 23.398 109.075 22.3057 109.075 21.2357C109.075 20.1657 108.949 19.073 108.683 18.0975C108.424 17.1448 107.999 16.1853 107.318 15.5021C106.636 14.8189 105.679 14.393 104.729 14.133C103.756 13.8666 102.666 13.7407 101.598 13.7407L101.598 13.7412Z" fill="#001137"/>
<path d="M92.2431 13.7412H92.2427C91.2551 13.7412 90.2471 13.8671 89.3466 14.1334C88.4969 14.3848 87.6417 14.7916 87.0155 15.4357V14.0621H84.7021V28.4235H87.0155V21.2371C87.0155 20.3275 87.1226 19.4535 87.3252 18.7089C87.517 18.0044 87.7905 17.448 88.0952 17.1425C88.3999 16.8371 88.9544 16.563 89.6577 16.3707C90.3999 16.1675 91.2719 16.0603 92.1792 16.0603C92.4404 16.0603 92.6988 16.0694 92.9518 16.0871V13.7598C92.7156 13.7475 92.4789 13.7407 92.2431 13.7407V13.7412Z" fill="#001137"/>
<path d="M123.446 23.4848C123.425 23.5794 123.401 23.673 123.377 23.7644C123.185 24.4689 122.912 25.0253 122.607 25.3308C122.317 25.6217 121.79 25.8876 121.122 26.0798C120.366 26.2971 119.468 26.4121 118.523 26.4121C117.579 26.4121 116.681 26.2971 115.925 26.0794C115.257 25.8871 114.73 25.6208 114.439 25.3303L114.435 25.3258C114.132 25.0194 113.86 24.4653 113.67 23.7639C113.535 23.2698 113.443 22.7185 113.396 22.138H125.97C125.99 21.8376 126 21.5362 126 21.2362C126 20.1658 125.874 19.0735 125.609 18.098C125.349 17.1453 124.925 16.1858 124.243 15.5026C123.561 14.8194 122.604 14.3935 121.654 14.1335C120.681 13.8671 119.591 13.7412 118.523 13.7412C117.456 13.7412 116.366 13.8671 115.393 14.1335C114.443 14.3935 113.485 14.8194 112.804 15.5026C112.122 16.1862 111.698 17.1453 111.438 18.098C111.172 19.0739 111.047 20.1658 111.047 21.2362C111.047 22.3067 111.172 23.3989 111.438 24.3744C111.698 25.3271 112.122 26.2867 112.804 26.9698C113.441 27.6085 114.343 28.0362 115.286 28.308C116.25 28.5858 117.363 28.7308 118.523 28.7308C119.684 28.7308 120.796 28.5858 121.761 28.308C122.704 28.0367 123.606 27.6085 124.243 26.9698C124.925 26.2862 125.35 25.3267 125.609 24.3739C125.634 24.2821 125.658 24.1889 125.68 24.0948L123.446 23.4839V23.4848ZM113.67 18.7085C113.862 18.0039 114.135 17.4476 114.44 17.1421C114.745 16.8367 115.299 16.5626 116.002 16.3703C116.744 16.1671 117.616 16.0598 118.523 16.0598C119.43 16.0598 120.302 16.1671 121.045 16.3703C121.748 16.5626 122.303 16.8367 122.608 17.1421C122.912 17.4476 123.186 18.0035 123.377 18.7085C123.482 19.0912 123.561 19.5089 123.612 19.9476H113.435C113.487 19.5089 113.566 19.0917 113.67 18.7085Z" fill="#001137"/>
<path fill-rule="evenodd" clip-rule="evenodd" d="M39.9018 19.9993C39.9017 17.6155 38.9732 15.1999 37.7682 13.085C36.534 10.9192 34.8533 8.79456 32.9911 6.92775C31.129 5.06095 29.0096 3.37596 26.8491 2.13875C24.7393 0.930639 22.3295 -7.81835e-05 19.9513 4.92599e-09C17.5732 7.82163e-05 15.1634 0.930869 13.0536 2.13903C10.893 3.3763 8.77349 5.06134 6.9112 6.92822C5.04892 8.79509 3.36801 10.9198 2.13378 13.0857C0.928583 15.2007 7.8557e-05 17.6171 0 20.001C0.000330667 22.2288 0.829724 24.5523 2.00195 26.6749C3.20038 28.8449 4.88759 31.0422 6.91171 33.0713C8.93572 35.1003 11.1275 36.7918 13.2921 37.9933C15.4094 39.1685 17.7275 40.0001 19.9504 40C22.3286 39.9999 24.7384 39.0691 26.8483 37.8609C29.0089 36.6236 31.1285 34.9385 32.9908 33.0716C34.8531 31.2047 36.534 29.08 37.7682 26.914C38.9734 24.7991 39.9019 22.3833 39.9018 19.9993ZM31.1893 8.73371C29.8497 7.39095 27.9692 6.55447 26.102 6.04363C24.1897 5.52048 22.049 5.27277 19.9509 5.27272C17.8529 5.27268 15.7122 5.52032 13.7998 6.04345C11.9325 6.55428 10.052 7.39083 8.71234 8.73386C7.37274 10.0768 6.53828 11.962 6.0287 13.834C5.50684 15.7511 5.25977 17.8973 5.25977 20.0006C5.25977 22.1039 5.50684 24.25 6.0287 26.1671C6.53828 28.0391 7.37274 29.9243 8.71234 31.2673L8.71266 31.2676C9.96471 32.5224 11.7376 33.3629 13.5907 33.8966C15.4852 34.4423 17.6704 34.7273 19.9509 34.7273C22.2312 34.7273 24.4164 34.4424 26.311 33.8969C28.1641 33.3632 29.9372 32.5226 31.1894 31.2673C32.529 29.9243 33.3635 28.039 33.8731 26.167C34.3949 24.2499 34.642 22.1037 34.642 20.0003C34.642 17.897 34.3949 15.7509 33.8731 13.8338C33.3635 11.9618 32.529 10.0766 31.1893 8.73371Z" fill="#4A00F8"/>
</svg>
